<svg width="70" height="70" viewBox="0 0 70 70" fill="none" xmlns="http://www.w3.org/2000/svg">
<circle cx="35" cy="35" r="35" fill="white"/>
<path d="M40.0421 17.0109H38.5318C38.5318 16.4527 38.0793 16 37.5209 16H19.9392C19.381 16 18.9283 16.4526 18.9283 17.0109V43.8766C18.9283 44.4349 19.381 44.8875 19.9392 44.8875C39.1044 44.8875 37.6106 44.9464 37.9407 44.7953C38.1965 44.6782 38.3948 44.4578 38.4824 44.1874H40.042C40.0421 43.9934 40.0421 17.3897 40.0421 17.0109Z" fill="#60B7FF"/>
<path d="M39.6224 16H37.521C38.0793 16 38.5319 16.4526 38.5319 17.0109V43.8766C38.5319 44.4349 38.0793 44.8875 37.521 44.8875H39.6224C40.1807 44.8875 40.6332 44.4349 40.6332 43.8766V17.0109C40.6332 16.4526 40.1807 16 39.6224 16V16Z" fill="#26A6FE"/>
<path d="M40.6332 22.9249L35.9642 18.2559H21.9075C21.1359 18.2559 20.5103 18.8815 20.5103 19.6531V44.6365C20.5103 44.7224 20.5191 44.806 20.534 44.8876H39.6224C40.1807 44.8876 40.6332 44.4351 40.6332 43.8768V22.9249Z" fill="#26A6FE"/>
<path d="M42.2891 23.1851L39.9199 21.7058L37.8745 18.2559H23.8178C23.0461 18.2559 22.4205 18.8815 22.4205 19.6531V44.6365C22.4205 45.4082 23.0461 46.0338 23.8178 46.0338H42.262C42.2711 46.0338 42.28 46.0326 42.2891 46.0324V23.1851Z" fill="#EAF6FF"/>
<path d="M43.6592 24.0406L41.5579 22.7285V44.6365C41.5579 45.4082 40.9323 46.0338 40.1606 46.0338H42.262C43.0337 46.0338 43.6593 45.4082 43.6593 44.6365V24.0406H43.6592Z" fill="#D8ECFE"/>
<path d="M39.2717 24.0406H43.6592L37.8744 18.2559V22.6433C37.8744 23.415 38.5 24.0406 39.2717 24.0406Z" fill="#B3DAFE"/>
<path d="M40.3057 27.2067H25.774C25.4948 27.2067 25.2686 26.9803 25.2686 26.7012C25.2686 26.4221 25.4948 26.1958 25.774 26.1958H40.3057C40.5849 26.1958 40.8112 26.4221 40.8112 26.7012C40.8112 26.9803 40.5849 27.2067 40.3057 27.2067Z" fill="#82AEE3"/>
<path d="M40.3057 30.5509H25.774C25.4948 30.5509 25.2686 30.3246 25.2686 30.0455C25.2686 29.7664 25.4948 29.54 25.774 29.54H40.3057C40.5849 29.54 40.8112 29.7664 40.8112 30.0455C40.8112 30.3246 40.5849 30.5509 40.3057 30.5509Z" fill="#82AEE3"/>
<path d="M45.8135 32.7301H44.7181C44.4835 32.3246 44.0452 32.0526 43.5508 32.0526C42.8575 32.0526 27.5582 32.0526 26.5828 32.0526L24.8085 29.117H23.7329C23.544 28.8644 23.2456 28.7114 22.9239 28.7114H17.0109C16.4526 28.7114 16 29.164 16 29.7223V48.1121C16 48.8565 16.6035 49.4599 17.3478 49.4599H43.5508C43.7734 49.4599 43.9997 49.4023 44.1999 49.2916H44.2025C44.3724 49.1976 44.5193 49.0676 44.6342 48.9124H45.8134V32.7301H45.8135Z" fill="#FDB441"/>
<path d="M23.8196 29.2536L25.2842 32.0526H27.3855L25.921 29.2536C25.7465 28.9203 25.4015 28.7114 25.0253 28.7114H22.924C23.3001 28.7114 23.6452 28.9203 23.8196 29.2536Z" fill="#FEA613"/>
<path d="M45.6522 32.0527H43.5509C44.2953 32.0527 44.8987 32.6562 44.8987 33.4005V48.1122C44.8987 48.8566 44.2953 49.46 43.5509 49.46H45.6522C46.3966 49.46 47 48.8566 47 48.1122V33.4006C47 32.6562 46.3966 32.0527 45.6522 32.0527Z" fill="#FEA613"/>
<path d="M45 55C50.5228 55 55 50.5228 55 45C55 39.4772 50.5228 35 45 35C39.4772 35 35 39.4772 35 45C35 50.5228 39.4772 55 45 55Z" fill="#EAB14D"/>
<path d="M45 35C44.8215 35 44.6441 35.0049 44.4679 35.0141C49.7434 35.2907 53.9358 39.6557 53.9358 45C53.9358 50.3443 49.7434 54.7093 44.4679 54.9859C44.6441 54.9951 44.8215 55 45 55C50.5229 55 55 50.5229 55 45C55 39.4771 50.5229 35 45 35Z" fill="#E49542"/>
<path d="M45.0001 52.7924C49.3038 52.7924 52.7926 49.3036 52.7926 45C52.7926 40.6963 49.3038 37.2075 45.0001 37.2075C40.6964 37.2075 37.2076 40.6963 37.2076 45C37.2076 49.3036 40.6964 52.7924 45.0001 52.7924Z" fill="#F4FBFF"/>
<path d="M45.0001 37.2075C44.7843 37.2075 44.5706 37.2167 44.3593 37.2339C48.3631 37.5598 51.5109 40.9121 51.5109 45C51.5109 49.0878 48.3631 52.4401 44.3593 52.7661C44.5706 52.7833 44.7843 52.7925 45.0001 52.7925C49.3037 52.7925 52.7925 49.3037 52.7925 45C52.7925 40.6964 49.3037 37.2075 45.0001 37.2075Z" fill="#DAF1F4"/>
<path d="M44.9999 39.6061C44.8332 39.6061 44.6981 39.471 44.6981 39.3043V38.8614C44.6981 38.6947 44.8332 38.5596 44.9999 38.5596C45.1666 38.5596 45.3018 38.6947 45.3018 38.8614V39.3043C45.3018 39.471 45.1666 39.6061 44.9999 39.6061Z" fill="#2B4D66"/>
<path d="M49.0112 41.2811C48.9339 41.2811 48.8567 41.2516 48.7977 41.1927C48.6799 41.0748 48.6799 40.8838 48.7978 40.7659L49.111 40.4527C49.2289 40.3348 49.42 40.3348 49.5379 40.4527C49.6557 40.5706 49.6557 40.7616 49.5378 40.8795L49.2246 41.1927C49.1656 41.2516 49.0884 41.2811 49.0112 41.2811Z" fill="#2B4D66"/>
<path d="M51.106 45.3023H50.663C50.4963 45.3023 50.3612 45.1672 50.3612 45.0005C50.3612 44.8338 50.4963 44.6987 50.663 44.6987H51.106C51.2727 44.6987 51.4078 44.8338 51.4078 45.0005C51.4078 45.1672 51.2727 45.3023 51.106 45.3023Z" fill="#2B4D66"/>
<path d="M49.3012 49.6263C49.224 49.6263 49.1467 49.5968 49.0877 49.5379L48.7745 49.2247C48.6567 49.1068 48.6567 48.9158 48.7745 48.7978C48.8924 48.68 49.0835 48.68 49.2014 48.7978L49.5146 49.111C49.6325 49.2289 49.6325 49.42 49.5146 49.5379C49.4557 49.5968 49.3784 49.6263 49.3012 49.6263Z" fill="#2B4D66"/>
<path d="M44.9671 51.4079C44.8004 51.4079 44.6653 51.2728 44.6653 51.1061V50.6631C44.6653 50.4964 44.8004 50.3613 44.9671 50.3613C45.1338 50.3613 45.2689 50.4964 45.2689 50.6631V51.1061C45.2689 51.2728 45.1338 51.4079 44.9671 51.4079Z" fill="#2B4D66"/>
<path d="M40.6426 49.6034C40.5654 49.6034 40.4881 49.5739 40.4292 49.5149C40.3113 49.3971 40.3114 49.206 40.4292 49.0881L40.7425 48.7749C40.8604 48.6571 41.0514 48.657 41.1693 48.7749C41.2872 48.8928 41.2872 49.0839 41.1693 49.2018L40.856 49.515C40.7971 49.5739 40.7198 49.6034 40.6426 49.6034Z" fill="#2B4D66"/>
<path d="M39.304 45.2691H38.861C38.6943 45.2691 38.5592 45.134 38.5592 44.9673C38.5592 44.8006 38.6943 44.6655 38.861 44.6655H39.304C39.4706 44.6655 39.6058 44.8006 39.6058 44.9673C39.6058 45.134 39.4706 45.2691 39.304 45.2691Z" fill="#2B4D66"/>
<path d="M40.9792 41.2577C40.902 41.2577 40.8247 41.2282 40.7658 41.1693L40.4525 40.8561C40.3347 40.7382 40.3347 40.5471 40.4525 40.4292C40.5704 40.3114 40.7615 40.3113 40.8793 40.4292L41.1926 40.7424C41.3104 40.8603 41.3105 41.0514 41.1926 41.1693C41.1336 41.2282 41.0564 41.2577 40.9792 41.2577Z" fill="#2B4D66"/>
<path d="M45 45.3018H42.4367C42.27 45.3018 42.1349 45.1666 42.1349 45C42.1349 44.8333 42.27 44.6982 42.4367 44.6982H44.6981V40.8584C44.6981 40.6918 44.8332 40.5566 44.9999 40.5566C45.1666 40.5566 45.3017 40.6918 45.3017 40.8584V45C45.3018 45.1666 45.1666 45.3018 45 45.3018Z" fill="#2B4D66"/>
<path d="M48.0963 46.8939C48.0498 46.8939 48.0027 46.8831 47.9585 46.8604L44.862 45.268C44.7137 45.1918 44.6554 45.0099 44.7316 44.8616C44.8078 44.7134 44.9897 44.655 45.138 44.7312L48.2346 46.3235C48.3828 46.3998 48.4412 46.5817 48.365 46.7299C48.3114 46.834 48.2058 46.8939 48.0963 46.8939Z" fill="#DA4A54"/>
<path d="M45 45.8054C45.4449 45.8054 45.8056 45.4448 45.8056 44.9999C45.8056 44.555 45.4449 44.1943 45 44.1943C44.5551 44.1943 44.1945 44.555 44.1945 44.9999C44.1945 45.4448 44.5551 45.8054 45 45.8054Z" fill="#365E7D"/>
</svg>
