<svg width="70" height="70" viewBox="0 0 70 70" fill="none" xmlns="http://www.w3.org/2000/svg">
<circle cx="35" cy="35" r="35" fill="white"/>
<path d="M40.0422 16.0109H38.5318C38.5318 15.4527 38.0794 15 37.521 15H19.9393C19.381 15 18.9284 15.4526 18.9284 16.0109V42.8766C18.9284 43.4349 19.381 43.8875 19.9393 43.8875C39.1044 43.8875 37.6107 43.9464 37.9408 43.7953C38.1966 43.6782 38.3948 43.4578 38.4824 43.1874H40.0421C40.0422 42.9934 40.0422 16.3897 40.0422 16.0109Z" fill="#60B7FF"/>
<path d="M39.6223 15H37.5209C38.0792 15 38.5318 15.4526 38.5318 16.0109V42.8766C38.5318 43.4349 38.0792 43.8875 37.5209 43.8875H39.6223C40.1806 43.8875 40.6332 43.4349 40.6332 42.8766V16.0109C40.6332 15.4526 40.1806 15 39.6223 15V15Z" fill="#26A6FE"/>
<path d="M40.6332 21.9249L35.9642 17.2559H21.9075C21.1359 17.2559 20.5103 17.8815 20.5103 18.6531V43.6365C20.5103 43.7224 20.5191 43.806 20.534 43.8876H39.6224C40.1807 43.8876 40.6332 43.4351 40.6332 42.8768V21.9249Z" fill="#26A6FE"/>
<path d="M42.2891 22.1851L39.9199 20.7058L37.8745 17.2559H23.8178C23.0461 17.2559 22.4205 17.8815 22.4205 18.6531V43.6365C22.4205 44.4082 23.0461 45.0338 23.8178 45.0338H42.262C42.2711 45.0338 42.28 45.0326 42.2891 45.0324V22.1851Z" fill="#EAF6FF"/>
<path d="M43.6592 23.0406L41.5579 21.7285V43.6365C41.5579 44.4082 40.9323 45.0338 40.1606 45.0338H42.262C43.0337 45.0338 43.6593 44.4082 43.6593 43.6365V23.0406H43.6592Z" fill="#D8ECFE"/>
<path d="M39.2717 23.0406H43.6592L37.8745 17.2559V21.6433C37.8745 22.415 38.5001 23.0406 39.2717 23.0406Z" fill="#B3DAFE"/>
<path d="M40.3057 26.2067H25.774C25.4948 26.2067 25.2686 25.9803 25.2686 25.7012C25.2686 25.4221 25.4948 25.1958 25.774 25.1958H40.3057C40.5849 25.1958 40.8112 25.4221 40.8112 25.7012C40.8112 25.9803 40.5849 26.2067 40.3057 26.2067Z" fill="#82AEE3"/>
<path d="M40.3057 29.5509H25.774C25.4948 29.5509 25.2686 29.3246 25.2686 29.0455C25.2686 28.7664 25.4948 28.54 25.774 28.54H40.3057C40.5849 28.54 40.8112 28.7664 40.8112 29.0455C40.8112 29.3246 40.5849 29.5509 40.3057 29.5509Z" fill="#82AEE3"/>
<path d="M45.8135 31.7301H44.7181C44.4835 31.3246 44.0452 31.0526 43.5508 31.0526C42.8575 31.0526 27.5582 31.0526 26.5828 31.0526L24.8085 28.117H23.7329C23.544 27.8644 23.2456 27.7114 22.9239 27.7114H17.0109C16.4526 27.7114 16 28.164 16 28.7223V47.1121C16 47.8565 16.6035 48.4599 17.3478 48.4599H43.5508C43.7734 48.4599 43.9997 48.4023 44.1999 48.2916H44.2025C44.3724 48.1976 44.5193 48.0676 44.6342 47.9124H45.8134V31.7301H45.8135Z" fill="#FDB441"/>
<path d="M23.8196 28.2536L25.2842 31.0526H27.3855L25.921 28.2536C25.7465 27.9203 25.4015 27.7114 25.0253 27.7114H22.924C23.3001 27.7114 23.6452 27.9203 23.8196 28.2536Z" fill="#FEA613"/>
<path d="M45.6522 31.0527H43.5509C44.2953 31.0527 44.8987 31.6562 44.8987 32.4005V47.1122C44.8987 47.8566 44.2953 48.46 43.5509 48.46H45.6522C46.3966 48.46 47 47.8566 47 47.1122V32.4006C47 31.6562 46.3966 31.0527 45.6522 31.0527Z" fill="#FEA613"/>
<path d="M45 55C50.5228 55 55 50.5228 55 45C55 39.4772 50.5228 35 45 35C39.4772 35 35 39.4772 35 45C35 50.5228 39.4772 55 45 55Z" fill="#32BA7C"/>
<path d="M42.4448 49.511L47.5868 54.653C51.8455 53.5173 55 49.6372 55 45C55 44.9053 55 44.8107 55 44.716L50.9622 40.9937L42.4448 49.511Z" fill="#0AA06E"/>
<path d="M45.2524 47.2402C45.694 47.6818 45.694 48.4389 45.2524 48.8806L44.3375 49.7954C43.8959 50.237 43.1388 50.237 42.6972 49.7954L38.6908 45.7575C38.2492 45.3159 38.2492 44.5588 38.6908 44.1172L39.6057 43.2023C40.0473 42.7607 40.8044 42.7607 41.2461 43.2023L45.2524 47.2402Z" fill="white"/>
<path d="M48.754 40.2682C49.1956 39.8266 49.9527 39.8266 50.3943 40.2682L51.3092 41.1831C51.7508 41.6247 51.7508 42.3818 51.3092 42.8234L44.3691 49.732C43.9275 50.1736 43.1704 50.1736 42.7287 49.732L41.8139 48.8171C41.3723 48.3755 41.3723 47.6184 41.8139 47.1768L48.754 40.2682Z" fill="white"/>
</svg>
