<svg width="70" height="70" viewBox="0 0 70 70" fill="none" xmlns="http://www.w3.org/2000/svg">
<circle cx="35" cy="35" r="35" fill="white"/>
<path d="M43.0422 19.0109H41.5318C41.5318 18.4527 41.0794 18 40.521 18H22.9393C22.381 18 21.9284 18.4526 21.9284 19.0109V45.8766C21.9284 46.4349 22.381 46.8875 22.9393 46.8875C42.1044 46.8875 40.6107 46.9464 40.9408 46.7953C41.1966 46.6782 41.3948 46.4578 41.4824 46.1874H43.0421C43.0422 45.9934 43.0422 19.3897 43.0422 19.0109Z" fill="#60B7FF"/>
<path d="M42.6223 18H40.5209C41.0792 18 41.5318 18.4526 41.5318 19.0109V45.8766C41.5318 46.4349 41.0792 46.8875 40.5209 46.8875H42.6223C43.1806 46.8875 43.6332 46.4349 43.6332 45.8766V19.0109C43.6332 18.4526 43.1806 18 42.6223 18V18Z" fill="#26A6FE"/>
<path d="M43.6332 24.9249L38.9642 20.2559H24.9075C24.1359 20.2559 23.5103 20.8815 23.5103 21.6531V46.6365C23.5103 46.7224 23.5191 46.806 23.534 46.8876H42.6224C43.1807 46.8876 43.6332 46.4351 43.6332 45.8768V24.9249Z" fill="#26A6FE"/>
<path d="M45.2891 25.1851L42.9199 23.7058L40.8745 20.2559H26.8178C26.0461 20.2559 25.4205 20.8815 25.4205 21.6531V46.6365C25.4205 47.4082 26.0461 48.0338 26.8178 48.0338H45.262C45.2711 48.0338 45.28 48.0326 45.2891 48.0324V25.1851Z" fill="#EAF6FF"/>
<path d="M46.6592 26.0406L44.5579 24.7285V46.6365C44.5579 47.4082 43.9323 48.0338 43.1606 48.0338H45.262C46.0337 48.0338 46.6593 47.4082 46.6593 46.6365V26.0406H46.6592Z" fill="#D8ECFE"/>
<path d="M42.2717 26.0406H46.6592L40.8745 20.2559V24.6433C40.8745 25.415 41.5001 26.0406 42.2717 26.0406Z" fill="#B3DAFE"/>
<path d="M43.3057 29.2067H28.774C28.4948 29.2067 28.2686 28.9803 28.2686 28.7012C28.2686 28.4221 28.4948 28.1958 28.774 28.1958H43.3057C43.5849 28.1958 43.8112 28.4221 43.8112 28.7012C43.8112 28.9803 43.5849 29.2067 43.3057 29.2067Z" fill="#82AEE3"/>
<path d="M43.3057 32.5509H28.774C28.4948 32.5509 28.2686 32.3246 28.2686 32.0455C28.2686 31.7664 28.4948 31.54 28.774 31.54H43.3057C43.5849 31.54 43.8112 31.7664 43.8112 32.0455C43.8112 32.3246 43.5849 32.5509 43.3057 32.5509Z" fill="#82AEE3"/>
<path d="M48.8135 34.7301H47.7181C47.4835 34.3246 47.0452 34.0526 46.5508 34.0526C45.8575 34.0526 30.5582 34.0526 29.5828 34.0526L27.8085 31.117H26.7329C26.544 30.8644 26.2456 30.7114 25.9239 30.7114H20.0109C19.4526 30.7114 19 31.164 19 31.7223V50.1121C19 50.8565 19.6035 51.4599 20.3478 51.4599H46.5508C46.7734 51.4599 46.9997 51.4023 47.1999 51.2916H47.2025C47.3724 51.1976 47.5193 51.0676 47.6342 50.9124H48.8134V34.7301H48.8135Z" fill="#FDB441"/>
<path d="M26.8196 31.2536L28.2842 34.0526H30.3855L28.921 31.2536C28.7465 30.9203 28.4015 30.7114 28.0253 30.7114H25.924C26.3001 30.7114 26.6452 30.9203 26.8196 31.2536Z" fill="#FEA613"/>
<path d="M48.6522 34.0527H46.5509C47.2953 34.0527 47.8987 34.6562 47.8987 35.4005V50.1122C47.8987 50.8566 47.2953 51.46 46.5509 51.46H48.6522C49.3966 51.46 50 50.8566 50 50.1122V35.4006C50 34.6562 49.3966 34.0527 48.6522 34.0527Z" fill="#FEA613"/>
</svg>
