<svg width="21" height="21" viewBox="0 0 21 21" fill="none" xmlns="http://www.w3.org/2000/svg">
<path d="M8.14286 0C10.3025 0 12.3736 0.857906 13.9007 2.38499C15.4278 3.91207 16.2857 5.98324 16.2857 8.14286C16.2857 9.92743 15.7114 11.5774 14.7386 12.9197L20.1951 18.3763C20.4311 18.6088 20.5682 18.9233 20.5779 19.2544C20.5876 19.5855 20.4691 19.9076 20.2472 20.1535C20.0253 20.3994 19.717 20.5501 19.3867 20.5744C19.0563 20.5986 18.7294 20.4943 18.474 20.2834L18.3763 20.1951L12.9197 14.7386C11.5313 15.7468 9.85875 16.2885 8.14286 16.2857C5.98324 16.2857 3.91207 15.4278 2.38499 13.9007C0.857905 12.3736 0 10.3025 0 8.14286C0 5.98324 0.857905 3.91207 2.38499 2.38499C3.91207 0.857906 5.98324 3.21808e-08 8.14286 0ZM8.14286 2.57143C6.66522 2.57143 5.24811 3.15842 4.20326 4.20326C3.15842 5.24811 2.57143 6.66522 2.57143 8.14286C2.57143 9.62049 3.15842 11.0376 4.20326 12.0825C5.24811 13.1273 6.66522 13.7143 8.14286 13.7143C9.62049 13.7143 11.0376 13.1273 12.0825 12.0825C13.1273 11.0376 13.7143 9.62049 13.7143 8.14286C13.7143 6.66522 13.1273 5.24811 12.0825 4.20326C11.0376 3.15842 9.62049 2.57143 8.14286 2.57143Z" fill="#0A1739"/>
</svg>
